<svg width="331" height="331" viewBox="0 0 331 331" fill="none" xmlns="http://www.w3.org/2000/svg">
<path d="M42.2031 278V249.992H52.125C62.0729 249.992 67.0469 254.543 67.0469 263.645C67.0469 268.007 65.6862 271.49 62.9648 274.094C60.2565 276.698 56.6432 278 52.125 278H42.2031ZM48.5117 255.129V272.883H51.6367C54.3711 272.883 56.513 272.062 58.0625 270.422C59.625 268.781 60.4062 266.548 60.4062 263.723C60.4062 261.053 59.6315 258.957 58.082 257.434C56.5456 255.897 54.3841 255.129 51.5977 255.129H48.5117ZM96.4922 278H79.6953V249.992H95.8477V255.129H86.0039V261.359H95.1641V266.477H86.0039V272.883H96.4922V278ZM132.5 249.992L122.852 278H115.703L106.172 249.992H112.969L118.809 269.484C119.121 270.539 119.31 271.47 119.375 272.277H119.492C119.583 271.405 119.785 270.448 120.098 269.406L125.898 249.992H132.5ZM142.18 276.926V270.676C143.312 271.626 144.543 272.342 145.871 272.824C147.199 273.293 148.54 273.527 149.895 273.527C150.689 273.527 151.379 273.456 151.965 273.312C152.564 273.169 153.059 272.974 153.449 272.727C153.853 272.466 154.152 272.167 154.348 271.828C154.543 271.477 154.641 271.099 154.641 270.695C154.641 270.148 154.484 269.66 154.172 269.23C153.859 268.801 153.43 268.404 152.883 268.039C152.349 267.674 151.711 267.323 150.969 266.984C150.227 266.646 149.426 266.301 148.566 265.949C146.379 265.038 144.745 263.924 143.664 262.609C142.596 261.294 142.062 259.706 142.062 257.844C142.062 256.385 142.355 255.135 142.941 254.094C143.527 253.039 144.322 252.173 145.324 251.496C146.34 250.819 147.512 250.324 148.84 250.012C150.168 249.686 151.574 249.523 153.059 249.523C154.517 249.523 155.806 249.615 156.926 249.797C158.059 249.966 159.1 250.233 160.051 250.598V256.438C159.582 256.112 159.068 255.826 158.508 255.578C157.961 255.331 157.395 255.129 156.809 254.973C156.223 254.803 155.637 254.68 155.051 254.602C154.478 254.523 153.931 254.484 153.41 254.484C152.694 254.484 152.043 254.556 151.457 254.699C150.871 254.829 150.376 255.018 149.973 255.266C149.569 255.513 149.257 255.812 149.035 256.164C148.814 256.503 148.703 256.887 148.703 257.316C148.703 257.785 148.827 258.208 149.074 258.586C149.322 258.951 149.673 259.302 150.129 259.641C150.585 259.966 151.138 260.292 151.789 260.617C152.44 260.93 153.176 261.255 153.996 261.594C155.116 262.062 156.118 262.564 157.004 263.098C157.902 263.618 158.671 264.211 159.309 264.875C159.947 265.539 160.435 266.301 160.773 267.16C161.112 268.007 161.281 268.996 161.281 270.129C161.281 271.691 160.982 273.007 160.383 274.074C159.797 275.129 158.996 275.988 157.98 276.652C156.965 277.303 155.78 277.772 154.426 278.059C153.085 278.345 151.665 278.488 150.168 278.488C148.632 278.488 147.167 278.358 145.773 278.098C144.393 277.837 143.195 277.447 142.18 276.926ZM190.688 278H173.891V249.992H190.043V255.129H180.199V261.359H189.359V266.477H180.199V272.883H190.688V278ZM228.375 278H222.008L210.465 260.402C209.788 259.374 209.319 258.599 209.059 258.078H208.98C209.085 259.068 209.137 260.578 209.137 262.609V278H203.18V249.992H209.977L221.09 267.043C221.598 267.811 222.066 268.573 222.496 269.328H222.574C222.47 268.677 222.418 267.395 222.418 265.48V249.992H228.375V278ZM241.492 276.926V270.676C242.625 271.626 243.855 272.342 245.184 272.824C246.512 273.293 247.853 273.527 249.207 273.527C250.001 273.527 250.691 273.456 251.277 273.312C251.876 273.169 252.371 272.974 252.762 272.727C253.165 272.466 253.465 272.167 253.66 271.828C253.855 271.477 253.953 271.099 253.953 270.695C253.953 270.148 253.797 269.66 253.484 269.23C253.172 268.801 252.742 268.404 252.195 268.039C251.661 267.674 251.023 267.323 250.281 266.984C249.539 266.646 248.738 266.301 247.879 265.949C245.691 265.038 244.057 263.924 242.977 262.609C241.909 261.294 241.375 259.706 241.375 257.844C241.375 256.385 241.668 255.135 242.254 254.094C242.84 253.039 243.634 252.173 244.637 251.496C245.652 250.819 246.824 250.324 248.152 250.012C249.48 249.686 250.887 249.523 252.371 249.523C253.829 249.523 255.118 249.615 256.238 249.797C257.371 249.966 258.413 250.233 259.363 250.598V256.438C258.895 256.112 258.38 255.826 257.82 255.578C257.273 255.331 256.707 255.129 256.121 254.973C255.535 254.803 254.949 254.68 254.363 254.602C253.79 254.523 253.243 254.484 252.723 254.484C252.007 254.484 251.355 254.556 250.77 254.699C250.184 254.829 249.689 255.018 249.285 255.266C248.882 255.513 248.569 255.812 248.348 256.164C248.126 256.503 248.016 256.887 248.016 257.316C248.016 257.785 248.139 258.208 248.387 258.586C248.634 258.951 248.986 259.302 249.441 259.641C249.897 259.966 250.451 260.292 251.102 260.617C251.753 260.93 252.488 261.255 253.309 261.594C254.428 262.062 255.431 262.564 256.316 263.098C257.215 263.618 257.983 264.211 258.621 264.875C259.259 265.539 259.747 266.301 260.086 267.16C260.424 268.007 260.594 268.996 260.594 270.129C260.594 271.691 260.294 273.007 259.695 274.074C259.109 275.129 258.309 275.988 257.293 276.652C256.277 277.303 255.092 277.772 253.738 278.059C252.397 278.345 250.978 278.488 249.48 278.488C247.944 278.488 246.479 278.358 245.086 278.098C243.706 277.837 242.508 277.447 241.492 276.926ZM290 278H273.203V249.992H289.355V255.129H279.512V261.359H288.672V266.477H279.512V272.883H290V278Z" fill="black"/>
<path d="M200 151L232 183L200 217.5" stroke="black" stroke-width="16"/>
<path d="M131 151L99 183L131 217.5" stroke="black" stroke-width="16"/>
<path fill-rule="evenodd" clip-rule="evenodd" d="M49 116V229.5H33V88C33 69.2223 48.2223 54 67 54H264.5C283.278 54 298.5 69.2223 298.5 88V233.5H282.5V116H49ZM82 85C82 90.5228 77.5229 95 72 95C66.4771 95 62 90.5228 62 85C62 79.4772 66.4771 75 72 75C77.5229 75 82 79.4772 82 85ZM100 95C105.523 95 110 90.5228 110 85C110 79.4772 105.523 75 100 75C94.4771 75 90 79.4772 90 85C90 90.5228 94.4771 95 100 95ZM138 85C138 90.5228 133.523 95 128 95C122.477 95 118 90.5228 118 85C118 79.4772 122.477 75 128 75C133.523 75 138 79.4772 138 85ZM211.5 79C207.91 79 205 81.9102 205 85.5C205 89.0898 207.91 92 211.5 92H253.5C257.09 92 260 89.0898 260 85.5C260 81.9102 257.09 79 253.5 79H211.5Z" fill="black"/>
<line x1="175.744" y1="145.008" x2="154.744" y2="226.008" stroke="black" stroke-width="16"/>
</svg>
